<?xml version="1.0" standalone="no"?>
<!DOCTYPE svg PUBLIC "-//W3C//DTD SVG 20010904//EN"
 "http://www.w3.org/TR/2001/REC-SVG-20010904/DTD/svg10.dtd">
<svg version="1.0" xmlns="http://www.w3.org/2000/svg"
 width="397.000000pt" height="397.000000pt" viewBox="0 0 397.000000 397.000000"
 preserveAspectRatio="xMidYMid meet">
<metadata>
Created by potrace 1.14, written by Peter Selinger 2001-2017
</metadata>
<g transform="translate(0.000000,397.000000) scale(0.100000,-0.100000)"
fill="#000000" stroke="none">
<path d="M2308 2407 c-9 -6 -19 -30 -21 -52 -3 -22 -13 -89 -21 -150 -9 -60
-25 -177 -36 -260 -22 -167 -43 -310 -65 -460 -8 -55 -24 -170 -35 -255 -11
-85 -27 -200 -34 -255 -8 -55 -21 -149 -30 -210 -13 -99 -29 -151 -57 -195 -5
-8 -12 -23 -15 -32 -4 -10 -10 -18 -15 -18 -5 0 -9 -7 -9 -15 0 -32 -152 -157
-224 -185 -37 -14 -32 -27 14 -35 22 -4 42 -11 46 -16 3 -5 13 -9 22 -9 9 -1
35 -9 57 -20 22 -11 46 -19 53 -20 7 0 20 -4 30 -9 9 -5 55 -21 102 -36 47
-15 90 -31 95 -35 6 -4 34 -13 64 -20 30 -7 66 -19 80 -26 14 -8 34 -14 43
-14 9 0 19 -4 22 -9 3 -5 23 -12 43 -16 21 -4 44 -12 51 -18 19 -15 284 -16
303 -1 8 7 29 15 46 19 38 8 151 66 203 103 31 23 107 98 135 134 28 35 73
117 85 153 7 22 16 44 21 49 5 6 9 17 9 25 0 9 7 29 15 44 8 15 17 43 21 62 3
19 10 35 15 35 5 0 9 7 9 16 0 17 44 152 65 199 7 17 16 47 20 68 4 20 11 40
16 43 5 3 9 13 9 22 1 9 9 35 20 57 11 22 19 48 20 57 0 9 4 19 9 22 5 3 12
23 16 43 4 21 13 52 20 68 7 17 23 59 35 95 12 36 28 79 35 95 7 17 16 47 20
68 4 20 11 40 16 43 12 7 12 24 0 24 -5 0 -13 -10 -17 -22 -4 -13 -14 -33 -23
-44 -9 -12 -23 -32 -31 -44 -8 -12 -20 -28 -26 -34 -6 -7 -18 -25 -27 -41 -9
-17 -36 -52 -61 -78 -25 -27 -46 -52 -46 -56 0 -4 -42 -50 -92 -101 -89 -90
-291 -240 -324 -240 -8 0 -14 -4 -14 -10 0 -5 -6 -10 -12 -10 -7 0 -26 -8 -43
-17 -16 -9 -52 -16 -80 -16 -86 -1 -167 65 -228 186 -48 94 -102 240 -112 297
-4 25 -11 50 -15 55 -9 11 -25 93 -47 245 -8 58 -19 114 -23 125 -5 11 -14 63
-20 115 -6 52 -18 147 -26 210 -7 63 -18 160 -24 214 -6 55 -12 101 -13 103
-2 1 -11 -3 -19 -10z"/>
<path d="M1271 1864 c-12 -37 -21 -76 -21 -86 0 -10 -4 -26 -10 -36 -5 -9 -16
-57 -25 -107 -9 -49 -23 -124 -31 -165 -8 -41 -24 -122 -34 -180 -36 -192 -46
-245 -52 -260 -4 -8 -11 -44 -17 -80 -23 -142 -48 -276 -53 -290 -4 -8 -9 -36
-13 -61 -6 -51 1 -63 50 -75 17 -4 35 -10 40 -13 6 -4 51 -20 100 -35 50 -16
104 -35 122 -42 17 -8 35 -14 41 -14 5 0 23 -7 38 -15 16 -8 38 -15 49 -15 11
0 33 -7 49 -15 37 -20 43 -13 19 22 -11 15 -26 44 -33 63 -7 19 -17 40 -21 45
-3 6 -10 26 -14 45 -4 19 -11 40 -15 45 -4 6 -13 44 -19 85 -6 41 -16 91 -21
110 -6 19 -15 100 -20 180 -25 357 -42 638 -48 790 -6 141 -9 165 -23 168 -13
2 -22 -13 -38 -64z"/>
<path d="M140 1790 c-7 -28 -16 -53 -21 -56 -5 -3 -9 -13 -9 -22 0 -9 -6 -29
-14 -44 -8 -15 -17 -42 -21 -60 -4 -18 -11 -38 -16 -43 -4 -6 -13 -53 -20
-104 -12 -96 -1 -260 21 -299 5 -9 22 -44 37 -76 49 -103 56 -115 71 -121 13
-5 14 21 9 212 -4 120 -7 318 -7 441 0 125 -4 222 -9 222 -5 0 -14 -23 -21
-50z"/>
</g>
</svg>
